<svg width="20" height="20" viewBox="0 0 20 20" fill="none" xmlns="http://www.w3.org/2000/svg">
<path d="M10 0C15.5228 0 20 4.47715 20 10C20 15.5228 15.5228 20 10 20C4.47715 20 0 15.5228 0 10C0 4.47715 4.47715 0 10 0ZM9.99 8H9C8.4477 8 8 8.4477 8 9C8 9.51285 8.38603 9.93551 8.88338 9.99327L9 10V14.99C9 15.5106 9.39383 15.9392 9.89993 15.9941L10.01 16H10.5C11.0523 16 11.5 15.5523 11.5 15C11.5 14.671 11.3411 14.3791 11.0959 14.1969L11 14.1338V9.01C11 8.48939 10.6061 8.06076 10.1 8.00593L9.99 8ZM10 5C9.4477 5 9 5.44772 9 6C9 6.55228 9.4477 7 10 7C10.5523 7 11 6.55228 11 6C11 5.44772 10.5523 5 10 5Z" fill="#202126"/>
</svg>
