<svg width="36" height="36" viewBox="0 0 36 36" fill="none" xmlns="http://www.w3.org/2000/svg">
<circle cx="18" cy="18" r="18" fill="#202126"/>
<path d="M13.7144 10.2443C14.6661 10.9385 15.4076 11.8865 16.0417 12.7929L16.41 13.3293L16.7575 13.8416C17.1145 14.3639 17.0293 15.0769 16.5443 15.4967L14.9183 16.7042C14.7572 16.8239 14.7036 17.0414 14.8002 17.2173C15.1681 17.887 15.8235 18.8835 16.5735 19.6335C17.3243 20.3842 18.3678 21.0819 19.0835 21.4912C19.2691 21.5973 19.5025 21.5359 19.6198 21.3572L20.6776 19.7459C21.0833 19.2062 21.8407 19.0882 22.3913 19.4693L22.9444 19.8516C23.9765 20.5682 25.0865 21.3824 25.9342 22.468C26.2188 22.8325 26.2611 23.3092 26.0913 23.7053C25.394 25.3325 23.6293 26.7182 21.7937 26.6507L21.5432 26.6367L21.3491 26.62L21.1343 26.5959L20.8996 26.5634L20.6461 26.5212C20.6023 26.5133 20.5577 26.5049 20.5125 26.4961L20.2321 26.4373C20.184 26.4265 20.1352 26.4152 20.0857 26.4033L19.7806 26.3252L19.4602 26.2329L19.1252 26.1252C17.5866 25.6039 15.6343 24.579 13.6311 22.5758C11.628 20.5727 10.603 18.6203 10.0818 17.0817L9.97405 16.7468L9.88173 16.4263L9.80369 16.1213L9.73875 15.8325C9.71916 15.7391 9.70156 15.6485 9.68576 15.5609L9.64357 15.3073L9.61102 15.0727L9.58695 14.8579L9.57021 14.6637L9.55628 14.4133C9.48896 12.5838 10.8905 10.8061 12.5101 10.112C12.8902 9.94907 13.3505 9.97888 13.7144 10.2443ZM20.4931 13.2398L20.5898 13.2512C21.1963 13.3582 21.7535 13.6544 22.1814 14.0975C22.6093 14.5405 22.8858 15.1077 22.9716 15.7176C23.0357 16.1734 22.7181 16.5947 22.2623 16.6588C21.8391 16.7183 21.4455 16.4488 21.3402 16.045L21.3212 15.9496C21.2844 15.6882 21.1658 15.4451 20.9825 15.2552C20.8297 15.097 20.6384 14.9825 20.4284 14.9221L20.3003 14.8925C19.8472 14.8126 19.5445 14.3804 19.6244 13.9272C19.6986 13.5063 20.0766 13.2153 20.4931 13.2398ZM20.5 10.7069C21.1566 10.7069 21.8068 10.8362 22.4134 11.0875C23.0201 11.3388 23.5713 11.7071 24.0356 12.1714C24.4998 12.6357 24.8682 13.1869 25.1194 13.7935C25.3707 14.4001 25.5 15.0503 25.5 15.7069C25.5 16.1671 25.1269 16.5402 24.6667 16.5402C24.2393 16.5402 23.8871 16.2185 23.8389 15.8041L23.8333 15.7069C23.8333 15.2692 23.7472 14.8357 23.5796 14.4313C23.4121 14.0269 23.1666 13.6594 22.857 13.3499C22.5475 13.0404 22.1801 12.7948 21.7756 12.6273C21.4386 12.4877 21.0814 12.4046 20.7184 12.3807L20.5 12.3736C20.0398 12.3736 19.6667 12.0005 19.6667 11.5402C19.6667 11.08 20.0398 10.7069 20.5 10.7069Z" fill="#05FFCD"/>
</svg>
