<svg width="25" height="20" viewBox="0 0 25 20" fill="none" xmlns="http://www.w3.org/2000/svg">
<path d="M21.25 0C23.3211 0 25 1.67894 25 3.75V16.25C25 18.3211 23.3211 20 21.25 20H3.75C1.67894 20 0 18.3211 0 16.25V3.75C0 1.67894 1.67894 0 3.75 0H21.25ZM22.5 7.5H2.5V16.25C2.5 16.8911 2.98256 17.4194 3.60422 17.4916L3.75 17.5H21.25C21.8911 17.5 22.4194 17.0175 22.4916 16.3958L22.5 16.25V7.5ZM18.75 11.25C19.4404 11.25 20 11.8096 20 12.5C20 13.1411 19.5175 13.6694 18.8958 13.7416L18.75 13.75H15C14.3096 13.75 13.75 13.1904 13.75 12.5C13.75 11.8589 14.2325 11.3306 14.8542 11.2584L15 11.25H18.75ZM21.25 2.5H3.75C3.05965 2.5 2.5 3.05965 2.5 3.75V5H22.5V3.75C22.5 3.05965 21.9404 2.5 21.25 2.5Z" fill="#202126"/>
</svg>
