<svg width="36" height="36" viewBox="0 0 36 36" fill="none" xmlns="http://www.w3.org/2000/svg">
<circle cx="18" cy="18" r="18" fill="#202126"/>
<path d="M18.0001 9.66699C22.6024 9.66699 26.3334 13.398 26.3334 18.0003C26.3334 22.6027 22.6024 26.3337 18.0001 26.3337H11.3334C10.4129 26.3337 9.66675 25.5875 9.66675 24.667V18.0003C9.66675 13.398 13.3977 9.66699 18.0001 9.66699ZM18.0001 19.667H15.5001C15.0398 19.667 14.6667 20.0401 14.6667 20.5003C14.6667 20.9606 15.0398 21.3337 15.5001 21.3337H18.0001C18.4603 21.3337 18.8334 20.9606 18.8334 20.5003C18.8334 20.0401 18.4603 19.667 18.0001 19.667ZM20.5001 16.3337H15.5001C15.0398 16.3337 14.6667 16.7067 14.6667 17.167C14.6667 17.5944 14.9885 17.9466 15.4029 17.9947L15.5001 18.0003H20.5001C20.9603 18.0003 21.3334 17.6272 21.3334 17.167C21.3334 16.7396 21.0117 16.3874 20.5973 16.3393L20.5001 16.3337Z" fill="#05FFCD"/>
</svg>
