<svg width="23" height="23" viewBox="0 0 23 23" fill="none" xmlns="http://www.w3.org/2000/svg">
<mask id="path-1-inside-1_110_1399" fill="white">
<path d="M11.2998 0C17.5406 0 22.6003 5.05905 22.6006 11.2998C22.6006 17.5407 17.5407 22.6006 11.2998 22.6006C5.05905 22.6003 0 17.5406 0 11.2998C0.000248545 5.0592 5.0592 0.00024854 11.2998 0Z"/>
</mask>
<path d="M11.2998 0V-1.84853H11.2997L11.2998 0ZM22.6006 11.2998H24.4491V11.2997L22.6006 11.2998ZM11.2998 22.6006L11.2997 24.4491H11.2998V22.6006ZM0 11.2998L-1.84853 11.2997V11.2998H0ZM11.2998 0V1.84853C16.5198 1.84853 20.7518 6.08012 20.7521 11.2999L22.6006 11.2998L24.4491 11.2997C24.4488 4.03798 18.5613 -1.84853 11.2998 -1.84853V0ZM22.6006 11.2998H20.7521C20.7521 16.5198 16.5198 20.7521 11.2998 20.7521V22.6006V24.4491C18.5616 24.4491 24.4491 18.5616 24.4491 11.2998H22.6006ZM11.2998 22.6006L11.2999 20.7521C6.08012 20.7518 1.84853 16.5198 1.84853 11.2998H0H-1.84853C-1.84853 18.5613 4.03798 24.4488 11.2997 24.4491L11.2998 22.6006ZM0 11.2998L1.84853 11.2999C1.84874 6.08013 6.08013 1.84874 11.2999 1.84853L11.2998 0L11.2997 -1.84853C4.03827 -1.84824 -1.84824 4.03827 -1.84853 11.2997L0 11.2998Z" fill="#202126" mask="url(#path-1-inside-1_110_1399)"/>
<path d="M12.1118 7.12157C12.0646 6.7154 11.7195 6.40012 11.3006 6.40012C10.8496 6.40012 10.4839 6.76577 10.4839 7.21681V8.03351H9.66722L9.53298 8.03785C8.46794 8.10698 7.62549 8.99273 7.62549 10.0752C7.62549 11.2029 8.53961 12.117 9.66722 12.117H12.934L13.0074 12.1236C13.1979 12.1581 13.3424 12.3249 13.3424 12.5253C13.3424 12.7508 13.1595 12.9337 12.934 12.9337H8.85053L8.75529 12.9392C8.34912 12.9863 8.03384 13.3315 8.03384 13.7504C8.03384 14.2014 8.39949 14.5671 8.85053 14.5671H10.4839V15.3838L10.4894 15.479C10.5366 15.8852 10.8818 16.2005 11.3006 16.2005C11.7517 16.2005 12.1173 15.8348 12.1173 15.3838V14.5671H12.934L13.0682 14.5627C14.1333 14.4936 14.9757 13.6078 14.9757 12.5253C14.9757 11.3977 14.0616 10.4836 12.934 10.4836H9.66722L9.59382 10.477C9.40333 10.4424 9.25888 10.2757 9.25888 10.0752C9.25888 9.84972 9.4417 9.66689 9.66722 9.66689H13.7507L13.8459 9.6614C14.2521 9.61422 14.5674 9.26903 14.5674 8.8502C14.5674 8.39916 14.2018 8.03351 13.7507 8.03351H12.1173V7.21681L12.1118 7.12157Z" fill="#202126"/>
</svg>
