<svg width="20" height="20" viewBox="0 0 20 20" fill="none" xmlns="http://www.w3.org/2000/svg">
<path d="M10 0C15.5228 0 20 4.47715 20 10C20 15.5228 15.5228 20 10 20C4.47715 20 0 15.5228 0 10C0 4.47715 4.47715 0 10 0ZM10 14C9.4477 14 9 14.4477 9 15C9 15.5523 9.4477 16 10 16C10.5523 16 11 15.5523 11 15C11 14.4477 10.5523 14 10 14ZM10 4.5C7.99797 4.5 6.375 6.12297 6.375 8.125C6.375 8.6773 6.82272 9.125 7.375 9.125C7.92728 9.125 8.375 8.6773 8.375 8.125C8.375 7.22754 9.1025 6.5 10 6.5C10.8975 6.5 11.625 7.22754 11.625 8.125C11.625 8.8073 11.2042 9.3937 10.6042 9.6343C9.9293 9.9048 9 10.5971 9 11.75V12C9 12.5523 9.4477 13 10 13C10.5523 13 11 12.5523 11 12C11 11.7563 11.0494 11.6339 11.2612 11.5293L11.3484 11.4907C12.681 10.9564 13.625 9.6522 13.625 8.125C13.625 6.12297 12.002 4.5 10 4.5Z" fill="#202126"/>
</svg>
