<svg width="16" height="20" viewBox="0 0 16 20" fill="none" xmlns="http://www.w3.org/2000/svg">
<path d="M3 1V2C3 3.10457 3.89543 4 5 4H11C12.1046 4 13 3.10457 13 2V1H14C15.1046 1 16 1.89543 16 3V14C16 17.3137 13.3137 20 10 20H2C0.89543 20 0 19.1046 0 18V3C0 1.89543 0.89543 1 2 1H3ZM8 12H5C4.44772 12 4 12.4477 4 13C4 13.5523 4.44772 14 5 14H8C8.5523 14 9 13.5523 9 13C9 12.4477 8.5523 12 8 12ZM11 8H5C4.44772 8 4 8.4477 4 9C4 9.51285 4.38604 9.93551 4.88338 9.99327L5 10H11C11.5523 10 12 9.5523 12 9C12 8.4477 11.5523 8 11 8ZM10 0C10.5523 0 11 0.44772 11 1C11 1.51283 10.614 1.93551 10.1166 1.99327L10 2H6C5.44772 2 5 1.55228 5 1C5 0.487169 5.38604 0.0644934 5.88338 0.0067277L6 0H10Z" fill="#202126"/>
</svg>
