<svg width="20" height="19" viewBox="0 0 20 19" fill="none" xmlns="http://www.w3.org/2000/svg">
<path d="M18 9.9425C18 5.56202 14.4243 2 10 2C5.57567 2 2 5.56202 2 9.9425C2 11.1324 2.14659 11.8984 2.32843 12.4585C2.44951 12.8313 2.74118 12.4643 2.88468 12.3297C3.8667 11.4083 5.4021 11.4302 6.35736 12.3794C7.77816 13.791 9.0886 15.749 7.27806 17.549C6.30609 18.5154 4.84226 18.9173 3.72834 17.8765C2.29036 16.5328 1.04086 14.9692 0.42619 13.0761C0.169 12.284 0 11.3049 0 9.9425C0 4.44539 4.4832 0 10 0C15.5168 0 20 4.44539 20 9.9425C20 11.3049 19.831 12.284 19.5738 13.0761C18.9591 14.9692 17.7096 16.5328 16.2717 17.8765C15.1577 18.9173 13.6939 18.5154 12.7219 17.549C10.9114 15.749 12.2218 13.791 13.6426 12.3794C14.5979 11.4302 16.1333 11.4083 17.1153 12.3297C17.3925 12.5898 17.5286 12.8989 17.6716 12.4585C17.8534 11.8984 18 11.1324 18 9.9425Z" fill="#202126"/>
</svg>
