<svg width="21" height="21" viewBox="0 0 21 21" fill="none" xmlns="http://www.w3.org/2000/svg">
<path d="M1.40849 5.25175C4.30798 0.229679 10.7297 -1.49101 15.7517 1.40849C19.5216 3.585 21.4284 7.74423 20.9231 11.803C20.8674 12.2509 20.7823 12.6977 20.6671 13.1407C20.3486 14.3652 18.8561 14.7102 18.0088 13.8869L17.914 13.7867L15.6626 11.1994C14.66 10.0472 15.6869 8.30942 17.1404 8.5715L17.2737 8.60091L17.7912 8.73601C17.3245 6.81085 16.1007 5.07405 14.2517 4.00656C10.6646 1.9355 6.07763 3.16456 4.00656 6.75175C1.9355 10.3389 3.16456 14.9259 6.75175 16.9969C9.73601 18.7199 13.4158 18.1595 15.76 15.8529C16.3505 15.2718 17.3003 15.2795 17.8813 15.87C18.4623 16.4605 18.4547 17.4102 17.8642 17.9912C14.5835 21.2194 9.43411 22.0097 5.25175 19.595C0.229679 16.6955 -1.49101 10.2738 1.40849 5.25175ZM10.5017 4.00163C11.2814 4.00163 11.9222 4.59652 11.9948 5.35717L12.0017 5.50163V9.88031L14.0623 11.941C14.6481 12.5268 14.6481 13.4765 14.0623 14.0623C13.5131 14.6115 12.6441 14.6458 12.0549 14.1653L11.941 14.0623L9.44101 11.5623C9.19487 11.3162 9.04314 10.9932 9.00905 10.6499L9.00171 10.5016V5.50163C9.00171 4.67321 9.67321 4.00163 10.5017 4.00163Z" fill="#202126"/>
</svg>
