<svg width="18" height="19" viewBox="0 0 18 19" fill="none" xmlns="http://www.w3.org/2000/svg">
<path d="M10.2 0.399998C9.4889 -0.133332 8.5111 -0.133332 7.8 0.399998L0.8 5.65C0.29639 6.02771 0 6.62049 0 7.25V16.75C0 17.8546 0.89543 18.75 2 18.75H5.9C6.50751 18.75 7 18.2575 7 17.65V12.75C7 11.6454 7.8954 10.75 9 10.75C10.1046 10.75 11 11.6454 11 12.75V17.65C11 18.2575 11.4925 18.75 12.1 18.75H16C17.1046 18.75 18 17.8546 18 16.75V7.25C18 6.62049 17.7036 6.02771 17.2 5.65L10.2 0.399998Z" fill="#202126"/>
</svg>
