<svg width="20" height="18" viewBox="0 0 20 18" fill="none" xmlns="http://www.w3.org/2000/svg">
<path fill-rule="evenodd" clip-rule="evenodd" d="M20 9C20 9.5523 19.5523 10 19 10H17V16C17 17.1046 16.1046 18 15 18H2C0.895401 18 0 17.1046 0 16V2C0 0.895401 0.895401 0 2 0H15C16.1046 0 17 0.895401 17 2V8H19C19.5523 8 20 8.4477 20 9ZM17 8H8.1716L10 6.1716C10.3905 5.781 10.3905 5.1479 10 4.7574C9.6095 4.3668 8.9763 4.3668 8.5858 4.7574L5.227 8.1161C4.7389 8.6043 4.7389 9.3957 5.227 9.8839L8.5858 13.2426C8.9763 13.6332 9.6095 13.6332 10 13.2426C10.3905 12.8521 10.3905 12.219 10 11.8284L8.1716 10H17V8Z" fill="#202126"/>
</svg>
