<svg width="20" height="19" viewBox="0 0 20 19" fill="none" xmlns="http://www.w3.org/2000/svg">
<path d="M8.8906 0.335895C9.51441 -0.0799749 10.3136 -0.10968 10.9625 0.24678L11.1094 0.335895L19.1094 5.66924C19.6194 6.00925 19.9428 6.56231 19.9931 7.1672L20 7.33334V16.7982C20 17.8525 19.1841 18.7164 18.1493 18.7927L18 18.7982H2C0.945638 18.7982 0.0818349 17.9823 0.00548577 16.9474L0 16.7982V7.33334C0 6.72035 0.280821 6.14455 0.756194 5.76713L0.8906 5.66924L8.8906 0.335895ZM18 8.66659L10.8321 13.4453C10.3282 13.7812 9.6718 13.7812 9.168 13.4453L2 8.66659V16.7982H18V8.66659ZM10 1.99999L2.80281 6.79812L10 11.5963L17.1972 6.79814L10 1.99999Z" fill="#202126"/>
</svg>
