<svg width="25" height="22" viewBox="0 0 25 22" fill="none" xmlns="http://www.w3.org/2000/svg">
<path d="M21.0526 0C22.5061 0 23.6842 1.1782 23.6842 2.63158V5.61521C24.4708 6.07022 25 6.92068 25 7.89474V13.1579C25 14.132 24.4708 14.9824 23.6842 15.4374V18.4211C23.6842 19.8745 22.5061 21.0526 21.0526 21.0526H2.63158C1.1782 21.0526 0 19.8745 0 18.4211V2.63158C0 1.1782 1.1782 0 2.63158 0H21.0526ZM21.0526 2.63158H2.63158V18.4211H21.0526V15.7895H15.7895C12.8828 15.7895 10.5263 13.433 10.5263 10.5263C10.5263 7.70764 12.7421 5.40647 15.5268 5.2696L15.7895 5.26316H21.0526V2.63158ZM22.3684 7.89474H15.7895C14.3361 7.89474 13.1579 9.07289 13.1579 10.5263C13.1579 11.9797 14.3361 13.1579 15.7895 13.1579H22.3684V7.89474Z" fill="#202126"/>
<path d="M18.4211 10.5263C18.4211 9.79962 17.8321 9.21054 17.1053 9.21054C16.3786 9.21054 15.7896 9.79962 15.7896 10.5263C15.7896 11.253 16.3786 11.8421 17.1053 11.8421C17.8321 11.8421 18.4211 11.253 18.4211 10.5263Z" fill="#0EC7C9"/>
</svg>
