<svg width="18" height="19" viewBox="0 0 18 19" fill="none" xmlns="http://www.w3.org/2000/svg">
<path d="M11.9395 17C11.9395 18.0544 11.1236 18.9182 10.0887 18.9945L9.93945 19H7.93945C6.88509 19 6.02129 18.1841 5.94494 17.1493L5.93945 17H11.9395ZM8.93965 0C12.7251 0 15.8088 3.00479 15.9356 6.75935L15.9397 7V10.7639L17.7617 14.4081C18.1099 15.1047 17.6442 15.9183 16.8927 15.9943L16.7779 16H1.10142C0.32264 16 -0.196848 15.2195 0.0713479 14.5134L0.117551 14.4081L1.93961 10.7639V7C1.93961 3.13401 5.07362 0 8.93965 0Z" fill="#202126"/>
</svg>
