<svg width="30" height="30" viewBox="0 0 30 30" fill="none" xmlns="http://www.w3.org/2000/svg">
<path fill-rule="evenodd" clip-rule="evenodd" d="M6.25 3.75C6.25 3.05965 6.80965 2.5 7.5 2.5H22.5C23.1904 2.5 23.75 3.05965 23.75 3.75C23.75 4.44035 23.1904 5 22.5 5H7.5C6.80965 5 6.25 4.44035 6.25 3.75ZM6.25 6.25C4.86929 6.25 3.75 7.36929 3.75 8.75V23.75C3.75 25.1308 4.86929 26.25 6.25 26.25H7.9277H7.93015H23.75C25.1308 26.25 26.25 25.1308 26.25 23.75V20.1269V20.1245V8.75C26.25 7.36929 25.1308 6.25 23.75 6.25H6.25ZM23.75 17.1079V8.75H6.25V23.75H7.41116L17.7968 13.3644C18.407 12.7542 19.3962 12.7542 20.0065 13.3644L23.75 17.1079ZM10.625 15C11.6605 15 12.5 14.1605 12.5 13.125C12.5 12.0895 11.6605 11.25 10.625 11.25C9.58946 11.25 8.75 12.0895 8.75 13.125C8.75 14.1605 9.58946 15 10.625 15Z" fill="#6F7C8E"/>
</svg>
