<svg width="20" height="19" viewBox="0 0 20 19" fill="none" xmlns="http://www.w3.org/2000/svg">
<path fill-rule="evenodd" clip-rule="evenodd" d="M7.96478 0.292212C7.59589 0.0266817 7.07558 -0.0974984 6.56387 0.0897316C5.4666 0.491202 4.46004 1.07899 3.5823 1.8142C3.16522 2.16355 3.01268 2.67544 3.05794 3.12731C3.13333 3.88011 3.00046 4.60696 2.63874 5.23347C2.27685 5.86029 1.71344 6.33895 1.02334 6.65004C0.60859 6.83701 0.24074 7.22613 0.14751 7.7635C0.0504701 8.323 0 8.8977 0 9.4835C0 10.0692 0.0504701 10.644 0.14752 11.2034C0.24075 11.7408 0.6086 12.1299 1.02335 12.3169C1.71344 12.628 2.27685 13.1067 2.63874 13.7335C3.00045 14.36 3.13332 15.0868 3.05794 15.8396C3.01269 16.2915 3.16523 16.8034 3.5823 17.1527C4.46002 17.8879 5.46655 18.4757 6.56378 18.8771C7.07552 19.0644 7.59585 18.9402 7.96474 18.6746C8.5794 18.2322 9.2759 17.9834 10 17.9834C10.7241 17.9834 11.4206 18.2322 12.0353 18.6746C12.4042 18.9402 12.9245 19.0644 13.4362 18.8771C14.5334 18.4757 15.5399 17.8879 16.4176 17.1528C16.8347 16.8034 16.9872 16.2915 16.942 15.8396C16.8666 15.0868 16.9994 14.36 17.3611 13.7335C17.723 13.1067 18.2865 12.628 18.9766 12.3169C19.3914 12.1299 19.7593 11.7408 19.8525 11.2034C19.9495 10.644 20 10.0692 20 9.4835C20 8.8978 19.9495 8.3231 19.8525 7.7637C19.7593 7.22628 19.3914 6.83714 18.9766 6.65018C18.2865 6.33909 17.723 5.86042 17.3611 5.2336C16.9994 4.60706 16.8666 3.88017 16.942 3.12732C16.9873 2.67542 16.8347 2.1635 16.4176 1.81413C15.5399 1.07896 14.5334 0.491192 13.4361 0.0897316C12.9244 -0.0974884 12.4041 0.0266817 12.0352 0.292212C11.4206 0.734632 10.7241 0.983432 10 0.983432C9.2759 0.983432 8.5794 0.734632 7.96478 0.292212ZM7 9.4834C7 7.8265 8.3431 6.4834 10 6.4834C11.6569 6.4834 13 7.8265 13 9.4834C13 11.1403 11.6569 12.4834 10 12.4834C8.3431 12.4834 7 11.1403 7 9.4834Z" fill="#202126"/>
</svg>
