<svg width="103" height="52" viewBox="0 0 103 52" fill="none" xmlns="http://www.w3.org/2000/svg">
<g filter="url(#filter0_d_121_2928)">
<rect x="7" y="5" width="84.7676" height="34" rx="17" fill="#202126"/>
</g>
<path fill-rule="evenodd" clip-rule="evenodd" d="M27.2818 17.08C27.236 18.2433 27.2818 25.5608 27.2818 25.5608C27.3953 25.5608 27.5088 25.579 27.6178 25.6154L31.5318 26.9201V18.4392C31.4183 18.4392 31.3049 18.421 31.1959 18.3847L27.2818 17.08ZM26.9458 15.6987C27.1639 15.626 27.3997 15.626 27.6178 15.6987L31.5318 17.0034L35.2781 15.7546C35.8744 15.5558 36.4902 15.9997 36.4902 16.6282V25.9948C36.4902 26.4521 36.1975 26.8581 35.7636 27.0027L31.8678 28.3013C31.6497 28.3741 31.414 28.3741 31.1959 28.3013L27.2818 26.9966L23.5355 28.2454C22.9392 28.4442 22.3235 28.0004 22.3235 27.3718V18.0053C22.3235 17.5479 22.6161 17.1419 23.05 16.9973L26.9458 15.6987Z" fill="white"/>
<path d="M48.1966 17.27V18.572H45.6066V27H44.0106V18.572H41.4066V17.27H48.1966ZM50.9089 20.406C51.1423 20.014 51.4503 19.7107 51.8329 19.496C52.2249 19.272 52.6869 19.16 53.2189 19.16V20.812H52.8129C52.1876 20.812 51.7116 20.9707 51.3849 21.288C51.0676 21.6053 50.9089 22.156 50.9089 22.94V27H49.3129V19.286H50.9089V20.406ZM53.654 23.108C53.654 22.3333 53.8127 21.6473 54.13 21.05C54.4567 20.4527 54.8953 19.9907 55.446 19.664C56.006 19.328 56.622 19.16 57.294 19.16C57.9007 19.16 58.428 19.2813 58.876 19.524C59.3333 19.7573 59.6973 20.0513 59.968 20.406V19.286H61.578V27H59.968V25.852C59.6973 26.216 59.3287 26.5193 58.862 26.762C58.3953 27.0047 57.8633 27.126 57.266 27.126C56.6033 27.126 55.9967 26.958 55.446 26.622C54.8953 26.2767 54.4567 25.8007 54.13 25.194C53.8127 24.578 53.654 23.8827 53.654 23.108ZM59.968 23.136C59.968 22.604 59.856 22.142 59.632 21.75C59.4173 21.358 59.1327 21.0593 58.778 20.854C58.4233 20.6487 58.0407 20.546 57.63 20.546C57.2193 20.546 56.8367 20.6487 56.482 20.854C56.1273 21.05 55.838 21.344 55.614 21.736C55.3993 22.1187 55.292 22.576 55.292 23.108C55.292 23.64 55.3993 24.1067 55.614 24.508C55.838 24.9093 56.1273 25.2173 56.482 25.432C56.846 25.6373 57.2287 25.74 57.63 25.74C58.0407 25.74 58.4233 25.6373 58.778 25.432C59.1327 25.2267 59.4173 24.928 59.632 24.536C59.856 24.1347 59.968 23.668 59.968 23.136ZM62.6423 23.136C62.6423 22.3427 62.8009 21.6473 63.1183 21.05C63.4449 20.4433 63.8929 19.9767 64.4623 19.65C65.0316 19.3233 65.6849 19.16 66.4223 19.16C67.3556 19.16 68.1256 19.384 68.7323 19.832C69.3483 20.2707 69.7636 20.9007 69.9783 21.722H68.2563C68.1163 21.3393 67.8923 21.0407 67.5843 20.826C67.2763 20.6113 66.8889 20.504 66.4223 20.504C65.7689 20.504 65.2463 20.7373 64.8543 21.204C64.4716 21.6613 64.2803 22.3053 64.2803 23.136C64.2803 23.9667 64.4716 24.6153 64.8543 25.082C65.2463 25.5487 65.7689 25.782 66.4223 25.782C67.3463 25.782 67.9576 25.376 68.2563 24.564H69.9783C69.7543 25.348 69.3343 25.9733 68.7183 26.44C68.1023 26.8973 67.3369 27.126 66.4223 27.126C65.6849 27.126 65.0316 26.9627 64.4623 26.636C63.8929 26.3 63.4449 25.8333 63.1183 25.236C62.8009 24.6293 62.6423 23.9293 62.6423 23.136ZM74.1208 23.15L77.6768 27H75.5208L72.6648 23.682V27H71.0688V16.64H72.6648V22.66L75.4648 19.286H77.6768L74.1208 23.15Z" fill="white"/>
<defs>
<filter id="filter0_d_121_2928" x="0" y="0" width="102.768" height="52" filterUnits="userSpaceOnUse" color-interpolation-filters="sRGB">
<feFlood flood-opacity="0" result="BackgroundImageFix"/>
<feColorMatrix in="SourceAlpha" type="matrix" values="0 0 0 0 0 0 0 0 0 0 0 0 0 0 0 0 0 0 127 0" result="hardAlpha"/>
<feOffset dx="2" dy="4"/>
<feGaussianBlur stdDeviation="4.5"/>
<feComposite in2="hardAlpha" operator="out"/>
<feColorMatrix type="matrix" values="0 0 0 0 0 0 0 0 0 0 0 0 0 0 0 0 0 0 0.04 0"/>
<feBlend mode="normal" in2="BackgroundImageFix" result="effect1_dropShadow_121_2928"/>
<feBlend mode="normal" in="SourceGraphic" in2="effect1_dropShadow_121_2928" result="shape"/>
</filter>
</defs>
</svg>
