<svg width="20" height="16" viewBox="0 0 20 16" fill="none" xmlns="http://www.w3.org/2000/svg">
<path d="M13 0C14.1046 0 15 0.89543 15 2V3H16.5194C17.1269 3 17.7016 3.27618 18.0811 3.75061L19.5617 5.6014C19.8454 5.956 20 6.3966 20 6.8508V11C20 12.1046 19.1046 13 18 13H17C17 14.6569 15.6569 16 14 16C12.3431 16 11 14.6569 11 13H8C8 14.6569 6.65685 16 5 16C3.34315 16 2 14.6569 2 13C0.89543 13 0 12.1046 0 11V2C0 0.89543 0.89543 0 2 0H13ZM5 12C4.44772 12 4 12.4477 4 13C4 13.5523 4.44772 14 5 14C5.55228 14 6 13.5523 6 13C6 12.4477 5.55228 12 5 12ZM14 12C13.4477 12 13 12.4477 13 13C13 13.5523 13.4477 14 14 14C14.5523 14 15 13.5523 15 13C15 12.4477 14.5523 12 14 12ZM16.5194 5H15V9H18V6.8508L16.5194 5Z" fill="#202126"/>
</svg>
