<svg width="24" height="19" viewBox="0 0 24 19" fill="none" xmlns="http://www.w3.org/2000/svg">
<path fill-rule="evenodd" clip-rule="evenodd" d="M2.33333 0C1.71449 0 1.121 0.245833 0.683417 0.683417C0.245833 1.121 0 1.71449 0 2.33333V16.3333C0 16.9522 0.245833 17.5457 0.683417 17.9832C1.121 18.4208 1.71449 18.6667 2.33333 18.6667H21C21.6188 18.6667 22.2123 18.4208 22.6499 17.9832C23.0875 17.5457 23.3333 16.9522 23.3333 16.3333V2.33333C23.3333 1.71449 23.0875 1.121 22.6499 0.683417C22.2123 0.245833 21.6188 0 21 0H2.33333ZM2.33333 2.33333H21V16.3333H2.33333V2.33333ZM9.625 6.70833C9.625 7.24982 9.4099 7.76912 9.02701 8.15201C8.64412 8.5349 8.12482 8.75 7.58333 8.75C7.04185 8.75 6.52254 8.5349 6.13966 8.15201C5.75677 7.76912 5.54167 7.24982 5.54167 6.70833C5.54167 6.16685 5.75677 5.64754 6.13966 5.26466C6.52254 4.88177 7.04185 4.66667 7.58333 4.66667C8.12482 4.66667 8.64412 4.88177 9.02701 5.26466C9.4099 5.64754 9.625 6.16685 9.625 6.70833ZM3.5 12.25C3.5 11.4765 3.80729 10.7346 4.35427 10.1876C4.90125 9.64062 5.64312 9.33333 6.41667 9.33333H8.75C9.13302 9.33333 9.51229 9.40877 9.86616 9.55535C10.22 9.70193 10.5416 9.91677 10.8124 10.1876C11.0832 10.4584 11.2981 10.78 11.4446 11.1338C11.5912 11.4877 11.6667 11.867 11.6667 12.25V12.8333C11.6667 13.1428 11.5438 13.4395 11.325 13.6583C11.1062 13.8771 10.8094 14 10.5 14C10.1906 14 9.89384 13.8771 9.67504 13.6583C9.45625 13.4395 9.33333 13.1428 9.33333 12.8333V12.25C9.33333 12.0953 9.27188 11.9469 9.16248 11.8375C9.05308 11.7281 8.90471 11.6667 8.75 11.6667H6.41667C6.26196 11.6667 6.11358 11.7281 6.00419 11.8375C5.89479 11.9469 5.83333 12.0953 5.83333 12.25V12.8333C5.83333 13.1428 5.71042 13.4395 5.49162 13.6583C5.27283 13.8771 4.97609 14 4.66667 14C4.35725 14 4.0605 13.8771 3.84171 13.6583C3.62292 13.4395 3.5 13.1428 3.5 12.8333V12.25ZM12.8333 8.16667C12.8333 7.85725 12.9563 7.5605 13.175 7.34171C13.3938 7.12292 13.6906 7 14 7H16.3333C16.6428 7 16.9395 7.12292 17.1583 7.34171C17.3771 7.5605 17.5 7.85725 17.5 8.16667C17.5 8.47609 17.3771 8.77283 17.1583 8.99162C16.9395 9.21042 16.6428 9.33333 16.3333 9.33333H14C13.6906 9.33333 13.3938 9.21042 13.175 8.99162C12.9563 8.77283 12.8333 8.47609 12.8333 8.16667ZM14 10.5C13.6906 10.5 13.3938 10.6229 13.175 10.8417C12.9563 11.0605 12.8333 11.3572 12.8333 11.6667C12.8333 11.9761 12.9563 12.2728 13.175 12.4916C13.3938 12.7104 13.6906 12.8333 14 12.8333H18.6667C18.9761 12.8333 19.2728 12.7104 19.4916 12.4916C19.7104 12.2728 19.8333 11.9761 19.8333 11.6667C19.8333 11.3572 19.7104 11.0605 19.4916 10.8417C19.2728 10.6229 18.9761 10.5 18.6667 10.5H14Z" fill="#202126"/>
</svg>
