<svg width="20" height="16" viewBox="0 0 20 16" fill="none" xmlns="http://www.w3.org/2000/svg">
<path fill-rule="evenodd" clip-rule="evenodd" d="M17 0C18.5977 0 19.9037 1.24892 19.9949 2.82373L20 3V13C20 14.5977 18.7511 15.9037 17.1763 15.9949L17 16H3C1.40232 16 0.0963393 14.7511 0.00509262 13.1763L0 13V3C0 1.40232 1.24892 0.0963393 2.82373 0.00509262L3 0H17ZM17 2H3C2.48717 2 2.06449 2.38604 2.00673 2.88338L2 3V13C2 13.5128 2.38604 13.9355 2.88338 13.9933L3 14H17C17.5128 14 17.9355 13.614 17.9933 13.1166L18 13V3C18 2.48717 17.614 2.06449 17.1166 2.00673L17 2ZM10.3539 4.9916C11.0432 3.79778 12.5362 3.35735 13.7547 3.95924L13.9055 4.03993L14.4994 4.38279C15.7976 5.13232 16.2424 6.7923 15.4929 8.0906C14.8733 9.16387 13.7394 9.75529 12.5822 9.73336L12.3778 9.7231L13.3461 11.4002C13.6222 11.8785 13.4583 12.4901 12.98 12.7663C12.536 13.0227 11.9769 12.8997 11.6781 12.4978L11.614 12.4002L10 9.6047L8.386 12.4002C8.1099 12.8785 7.4983 13.0424 7.02001 12.7663C6.57588 12.5098 6.40286 11.9642 6.6015 11.5046L6.65399 11.4002L7.62227 9.7231C6.39581 9.8232 5.1633 9.227 4.50716 8.0906C3.78762 6.84423 4.16877 5.26454 5.34899 4.47702L5.50066 4.38279L6.09451 4.03993C7.28833 3.35068 8.80154 3.71578 9.55593 4.84632L9.6462 4.9916L10 5.60449L10.3539 4.9916ZM12.0859 5.9916L11.386 7.2041L12.0045 7.5612C12.6195 7.9162 13.4058 7.7055 13.7608 7.0906C13.9581 6.7489 13.841 6.3121 13.4994 6.1148L12.9055 5.77198C12.6186 5.6063 12.2516 5.70462 12.0859 5.9916ZM7.91412 5.9916C7.76501 5.73332 7.45286 5.62785 7.18272 5.73012L7.09451 5.77198L6.50066 6.1148C6.15902 6.3121 6.04197 6.7489 6.23922 7.0906C6.57207 7.66707 7.28398 7.88828 7.87837 7.62117L7.99553 7.5612L8.614 7.2041L7.91412 5.9916Z" fill="#202126"/>
</svg>
