<svg width="18" height="18" viewBox="0 0 18 18" fill="none" xmlns="http://www.w3.org/2000/svg">
<path fill-rule="evenodd" clip-rule="evenodd" d="M16 2.50152V3.51293C17.1046 3.51293 18 4.40836 18 5.51293V15.5129C18 16.6175 17.1046 17.5129 16 17.5129H2C0.89543 17.5129 0 16.6175 0 15.5129V5.51293C0 4.46837 0.83483 3.5201 1.8132 3.24057L12.8132 0.0977123C14.4102 -0.358588 16 0.840573 16 2.50152ZM12.5 9.01294C11.6716 9.01294 11 9.68454 11 10.5129C11 11.3413 11.6716 12.0129 12.5 12.0129C13.3284 12.0129 14 11.3413 14 10.5129C14 9.68454 13.3284 9.01294 12.5 9.01294ZM14 2.50152C14 2.19702 13.7328 1.97012 13.4422 2.00471L13.3626 2.02076L8.1401 3.51293H14V2.50152Z" fill="#202126"/>
</svg>
